<svg viewBox="0 0 14 15" fill="none" xmlns="http://www.w3.org/2000/svg">
<path fill-rule="evenodd" clip-rule="evenodd" d="M6.99992 0.833496C7.36811 0.833496 7.66659 1.13197 7.66659 1.50016V7.89069L9.86185 5.69543C10.1222 5.43508 10.5443 5.43508 10.8047 5.69543C11.065 5.95577 11.065 6.37788 10.8047 6.63823L7.47132 9.97157C7.21097 10.2319 6.78886 10.2319 6.52851 9.97157L3.19518 6.63823C2.93483 6.37788 2.93483 5.95577 3.19518 5.69543C3.45553 5.43508 3.87764 5.43508 4.13799 5.69543L6.33325 7.89069V1.50016C6.33325 1.13197 6.63173 0.833496 6.99992 0.833496ZM0.999919 8.8335C1.36811 8.8335 1.66659 9.13197 1.66659 9.50016V12.1668C1.66659 12.3436 1.73682 12.5132 1.86185 12.6382C1.98687 12.7633 2.15644 12.8335 2.33325 12.8335H11.6666C11.8434 12.8335 12.013 12.7633 12.138 12.6382C12.263 12.5132 12.3333 12.3436 12.3333 12.1668V9.50016C12.3333 9.13197 12.6317 8.8335 12.9999 8.8335C13.3681 8.8335 13.6666 9.13197 13.6666 9.50016V12.1668C13.6666 12.6973 13.4559 13.206 13.0808 13.581C12.7057 13.9561 12.197 14.1668 11.6666 14.1668H2.33325C1.80282 14.1668 1.29411 13.9561 0.919038 13.581C0.543966 13.206 0.333252 12.6973 0.333252 12.1668V9.50016C0.333252 9.13197 0.631729 8.8335 0.999919 8.8335Z" fill="currentColor"/>
</svg>
