<svg viewBox="0 0 18 18" fill="none" xmlns="http://www.w3.org/2000/svg">
<path fill-rule="evenodd" clip-rule="evenodd" d="M2.33317 8.16602C2.33317 4.94436 4.94484 2.33268 8.1665 2.33268C11.3882 2.33268 13.9998 4.94436 13.9998 8.16602C13.9998 9.73771 13.3783 11.1642 12.3675 12.2131C12.3391 12.235 12.3117 12.259 12.2856 12.2851C12.2595 12.3112 12.2355 12.3386 12.2136 12.367C11.1647 13.3778 9.7382 13.9994 8.1665 13.9994C4.94484 13.9994 2.33317 11.3877 2.33317 8.16602ZM12.8479 14.0259C11.5649 15.0523 9.93735 15.666 8.1665 15.666C4.02437 15.666 0.666504 12.3082 0.666504 8.16602C0.666504 4.02388 4.02437 0.666016 8.1665 0.666016C12.3086 0.666016 15.6665 4.02388 15.6665 8.16602C15.6665 9.93686 15.0528 11.5644 14.0264 12.8474L17.0891 15.9101C17.4146 16.2356 17.4146 16.7632 17.0891 17.0886C16.7637 17.4141 16.236 17.4141 15.9106 17.0886L12.8479 14.0259Z" fill="currentColor"/>
</svg>
