<svg viewBox="0 0 16 12" fill="none" xmlns="http://www.w3.org/2000/svg">
  <path fill-rule="evenodd" clip-rule="evenodd" d="M2.0704 1.70263L7.99935 5.8529L13.9283 1.70263C13.818 1.48462 13.5913 1.33333 13.3327 1.33333H2.66602C2.40737 1.33333 2.18065 1.48462 2.0704 1.70263ZM13.9993 3.28044L8.38166 7.21282C8.15211 7.3735 7.84659 7.3735 7.61704 7.21282L1.99935 3.28044V10C1.99935 10.3651 2.30087 10.6667 2.66602 10.6667H13.3327C13.6978 10.6667 13.9993 10.3651 13.9993 10V3.28044ZM0.666016 2C0.666016 0.898477 1.56449 0 2.66602 0H13.3327C14.4342 0 15.3327 0.898477 15.3327 2V10C15.3327 11.1015 14.4342 12 13.3327 12H2.66602C1.56449 12 0.666016 11.1015 0.666016 10V2Z" fill="currentColor"/>
</svg>
