<svg viewBox="0 0 18 17" fill="none" xmlns="http://www.w3.org/2000/svg">
<path fill-rule="evenodd" clip-rule="evenodd" d="M9 1.75C5.27208 1.75 2.25 4.77208 2.25 8.5C2.25 12.2279 5.27208 15.25 9 15.25C12.7279 15.25 15.75 12.2279 15.75 8.5C15.75 4.77208 12.7279 1.75 9 1.75ZM0.75 8.5C0.75 3.94365 4.44365 0.25 9 0.25C13.5563 0.25 17.25 3.94365 17.25 8.5C17.25 13.0563 13.5563 16.75 9 16.75C4.44365 16.75 0.75 13.0563 0.75 8.5ZM7.14611 4.83874C7.38997 4.70823 7.68588 4.72253 7.91603 4.87596L12.416 7.87596C12.6247 8.01506 12.75 8.24924 12.75 8.5C12.75 8.75076 12.6247 8.98494 12.416 9.12404L7.91603 12.124C7.68588 12.2775 7.38997 12.2918 7.14611 12.1613C6.90224 12.0307 6.75 11.7766 6.75 11.5V5.5C6.75 5.2234 6.90224 4.96926 7.14611 4.83874ZM8.25 6.90139V10.0986L10.6479 8.5L8.25 6.90139Z" fill="currentColor"/>
</svg>
