<svg viewBox="0 0 16 14" fill="none" xmlns="http://www.w3.org/2000/svg">
<path fill-rule="evenodd" clip-rule="evenodd" d="M7.01898 0.5209C7.31851 0.352264 7.65644 0.263672 8.00018 0.263672C8.34391 0.263672 8.68185 0.352264 8.98137 0.5209C9.2809 0.689535 9.53191 0.932522 9.71018 1.22642L9.7121 1.22958L15.3588 10.6563L15.3642 10.6655C15.5388 10.9679 15.6312 11.3108 15.6322 11.66C15.6332 12.0092 15.5427 12.3526 15.3697 12.656C15.1968 12.9594 14.9474 13.2122 14.6465 13.3893C14.3455 13.5664 14.0034 13.6616 13.6542 13.6655L13.6468 13.6655L2.34618 13.6655C1.99698 13.6617 1.65487 13.5664 1.35389 13.3893C1.05291 13.2122 0.803545 12.9594 0.63061 12.656C0.457674 12.3526 0.367194 12.0092 0.368172 11.66C0.36915 11.3108 0.461551 10.9679 0.636183 10.6655L0.641598 10.6563L6.29017 1.22641C6.46844 0.932517 6.71946 0.689535 7.01898 0.5209ZM8.00018 1.59701C7.8856 1.59701 7.77295 1.62654 7.67311 1.68275C7.57372 1.73871 7.49036 1.81922 7.43098 1.91659L1.78863 11.3361C1.73185 11.4359 1.70182 11.5488 1.7015 11.6637C1.70117 11.7801 1.73133 11.8946 1.78898 11.9957C1.84662 12.0968 1.92975 12.1811 2.03007 12.2402C2.12952 12.2987 2.24244 12.3304 2.35777 12.3322H13.6426C13.7579 12.3304 13.8708 12.2987 13.9703 12.2402C14.0706 12.1811 14.1537 12.0968 14.2114 11.9957C14.269 11.8946 14.2992 11.7801 14.2989 11.6637C14.2985 11.5488 14.2685 11.4359 14.2117 11.3361L8.57018 1.91792C8.56991 1.91748 8.56964 1.91704 8.56937 1.91659C8.51 1.81922 8.42663 1.73871 8.32724 1.68275C8.2274 1.62654 8.11476 1.59701 8.00018 1.59701ZM8.00018 4.33217C8.36837 4.33217 8.66684 4.63064 8.66684 4.99883V7.6655C8.66684 8.03369 8.36837 8.33217 8.00018 8.33217C7.63199 8.33217 7.33351 8.03369 7.33351 7.6655V4.99883C7.33351 4.63064 7.63199 4.33217 8.00018 4.33217ZM7.33351 10.3322C7.33351 9.96398 7.63199 9.6655 8.00018 9.6655H8.00684C8.37503 9.6655 8.67351 9.96398 8.67351 10.3322C8.67351 10.7004 8.37503 10.9988 8.00684 10.9988H8.00018C7.63199 10.9988 7.33351 10.7004 7.33351 10.3322Z" fill="currentColor"/>
</svg>
