<svg viewBox="0 0 72 10" fill="none" xmlns="http://www.w3.org/2000/svg">
<path d="M8.676 9L10.968 0.431999H9.828L8.088 7.56H8.064L6.168 0.431999H4.932L3.012 7.56H2.988L1.308 0.431999H0.144L2.34 9H3.528L5.508 1.8H5.532L7.488 9H8.676ZM12.7054 4.716C12.7054 4.284 12.7614 3.86 12.8734 3.444C12.9854 3.02 13.1614 2.64 13.4014 2.304C13.6414 1.968 13.9494 1.7 14.3254 1.5C14.7014 1.292 15.1494 1.188 15.6694 1.188C16.1894 1.188 16.6374 1.292 17.0134 1.5C17.3894 1.7 17.6974 1.968 17.9374 2.304C18.1774 2.64 18.3534 3.02 18.4654 3.444C18.5774 3.86 18.6334 4.284 18.6334 4.716C18.6334 5.148 18.5774 5.576 18.4654 6C18.3534 6.416 18.1774 6.792 17.9374 7.128C17.6974 7.464 17.3894 7.736 17.0134 7.944C16.6374 8.144 16.1894 8.244 15.6694 8.244C15.1494 8.244 14.7014 8.144 14.3254 7.944C13.9494 7.736 13.6414 7.464 13.4014 7.128C13.1614 6.792 12.9854 6.416 12.8734 6C12.7614 5.576 12.7054 5.148 12.7054 4.716ZM11.5654 4.716C11.5654 5.3 11.6494 5.864 11.8174 6.408C11.9934 6.944 12.2534 7.42 12.5974 7.836C12.9414 8.252 13.3694 8.584 13.8814 8.832C14.3934 9.072 14.9894 9.192 15.6694 9.192C16.3494 9.192 16.9454 9.072 17.4574 8.832C17.9694 8.584 18.3974 8.252 18.7414 7.836C19.0854 7.42 19.3414 6.944 19.5094 6.408C19.6854 5.864 19.7734 5.3 19.7734 4.716C19.7734 4.132 19.6854 3.572 19.5094 3.036C19.3414 2.492 19.0854 2.012 18.7414 1.596C18.3974 1.18 17.9694 0.848 17.4574 0.599999C16.9454 0.352 16.3494 0.228 15.6694 0.228C14.9894 0.228 14.3934 0.352 13.8814 0.599999C13.3694 0.848 12.9414 1.18 12.5974 1.596C12.2534 2.012 11.9934 2.492 11.8174 3.036C11.6494 3.572 11.5654 4.132 11.5654 4.716ZM21.1626 0.431999V9H22.3026V5.34H25.0866C25.3666 5.34 25.5906 5.384 25.7586 5.472C25.9266 5.552 26.0626 5.664 26.1666 5.808C26.2706 5.944 26.3466 6.108 26.3946 6.3C26.4426 6.484 26.4826 6.68 26.5146 6.888C26.5546 7.096 26.5786 7.308 26.5866 7.524C26.5946 7.74 26.6026 7.944 26.6106 8.136C26.6186 8.32 26.6346 8.488 26.6586 8.64C26.6906 8.792 26.7466 8.912 26.8266 9H28.0986C27.9786 8.856 27.8866 8.692 27.8226 8.508C27.7666 8.316 27.7226 8.116 27.6906 7.908C27.6586 7.7 27.6386 7.488 27.6306 7.272C27.6226 7.056 27.6106 6.844 27.5946 6.636C27.5706 6.428 27.5346 6.228 27.4866 6.036C27.4466 5.844 27.3786 5.672 27.2826 5.52C27.1946 5.36 27.0706 5.224 26.9106 5.112C26.7586 5 26.5586 4.92 26.3106 4.872V4.848C26.8306 4.704 27.2066 4.436 27.4386 4.044C27.6786 3.652 27.7986 3.196 27.7986 2.676C27.7986 1.98 27.5666 1.432 27.1026 1.032C26.6466 0.631999 26.0106 0.431999 25.1946 0.431999H21.1626ZM24.6786 4.38H22.3026V1.392H25.1346C25.6706 1.392 26.0586 1.528 26.2986 1.8C26.5386 2.072 26.6586 2.424 26.6586 2.856C26.6586 3.168 26.6026 3.424 26.4906 3.624C26.3866 3.816 26.2426 3.972 26.0586 4.092C25.8826 4.204 25.6746 4.28 25.4346 4.32C25.1946 4.36 24.9426 4.38 24.6786 4.38ZM30.5174 8.04V1.392H32.4374C32.9654 1.392 33.4094 1.468 33.7694 1.62C34.1294 1.764 34.4214 1.98 34.6454 2.268C34.8774 2.548 35.0414 2.892 35.1374 3.3C35.2414 3.7 35.2934 4.156 35.2934 4.668C35.2934 5.196 35.2374 5.648 35.1254 6.024C35.0214 6.392 34.8854 6.7 34.7174 6.948C34.5494 7.196 34.3574 7.392 34.1414 7.536C33.9334 7.68 33.7214 7.792 33.5054 7.872C33.2894 7.944 33.0854 7.992 32.8934 8.016C32.7014 8.032 32.5414 8.04 32.4134 8.04H30.5174ZM29.3774 0.431999V9H32.3174C33.0294 9 33.6454 8.9 34.1654 8.7C34.6854 8.5 35.1134 8.212 35.4494 7.836C35.7854 7.452 36.0334 6.984 36.1934 6.432C36.3534 5.872 36.4334 5.232 36.4334 4.512C36.4334 3.136 36.0774 2.112 35.3654 1.44C34.6534 0.767999 33.6374 0.431999 32.3174 0.431999H29.3774ZM37.8506 0.431999V9H38.9306V1.872H38.9546L41.6306 9H42.6026L45.2786 1.872H45.3026V9H46.3826V0.431999H44.8226L42.1106 7.632L39.4106 0.431999H37.8506ZM49.7558 5.46L51.2078 1.464H51.2318L52.6598 5.46H49.7558ZM50.6078 0.431999L47.2717 9H48.4358L49.3958 6.42H53.0198L53.9557 9H55.2158L51.8678 0.431999H50.6078ZM56.061 0.431999V9H57.201V5.34H59.985C60.265 5.34 60.489 5.384 60.657 5.472C60.825 5.552 60.961 5.664 61.065 5.808C61.169 5.944 61.245 6.108 61.293 6.3C61.341 6.484 61.381 6.68 61.413 6.888C61.453 7.096 61.477 7.308 61.485 7.524C61.493 7.74 61.501 7.944 61.509 8.136C61.517 8.32 61.533 8.488 61.557 8.64C61.589 8.792 61.645 8.912 61.725 9H62.997C62.877 8.856 62.785 8.692 62.721 8.508C62.665 8.316 62.621 8.116 62.589 7.908C62.557 7.7 62.537 7.488 62.529 7.272C62.521 7.056 62.509 6.844 62.493 6.636C62.469 6.428 62.433 6.228 62.385 6.036C62.345 5.844 62.277 5.672 62.181 5.52C62.093 5.36 61.969 5.224 61.809 5.112C61.657 5 61.457 4.92 61.209 4.872V4.848C61.729 4.704 62.105 4.436 62.337 4.044C62.577 3.652 62.697 3.196 62.697 2.676C62.697 1.98 62.465 1.432 62.001 1.032C61.545 0.631999 60.909 0.431999 60.093 0.431999H56.061ZM59.577 4.38H57.201V1.392H60.033C60.569 1.392 60.957 1.528 61.197 1.8C61.437 2.072 61.557 2.424 61.557 2.856C61.557 3.168 61.501 3.424 61.389 3.624C61.285 3.816 61.141 3.972 60.957 4.092C60.781 4.204 60.573 4.28 60.333 4.32C60.093 4.36 59.841 4.38 59.577 4.38ZM64.2758 0.431999V9H65.4158V6L66.8438 4.668L69.9398 9H71.3798L67.6238 3.888L71.2358 0.431999H69.7598L65.4158 4.704V0.431999H64.2758Z" fill="currentColor"/>
</svg>
